<mxfile host="app.diagrams.net" modified="2023-10-15T16:03:41.370Z" agent="Mozilla/5.0 (Windows NT 10.0; Win64; x64) AppleWebKit/537.36 (KHTML, like Gecko) Chrome/118.0.0.0 Safari/537.36" etag="3fWqszOQcH4ZeU6WJIlZ" version="22.0.4" type="device">
  <diagram id="C5RBs43oDa-KdzZeNtuy" name="Page-1">
    <mxGraphModel dx="3586" dy="1765" grid="1" gridSize="10" guides="1" tooltips="1" connect="1" arrows="1" fold="1" page="1" pageScale="1" pageWidth="827" pageHeight="1169" math="0" shadow="0">
      <root>
        <mxCell id="WIyWlLk6GJQsqaUBKTNV-0" />
        <mxCell id="WIyWlLk6GJQsqaUBKTNV-1" parent="WIyWlLk6GJQsqaUBKTNV-0" />
        <mxCell id="WIyWlLk6GJQsqaUBKTNV-2" value="" style="rounded=0;html=1;jettySize=auto;orthogonalLoop=1;fontSize=11;endArrow=block;endFill=0;endSize=8;strokeWidth=1;shadow=0;labelBackgroundColor=none;edgeStyle=orthogonalEdgeStyle;" parent="WIyWlLk6GJQsqaUBKTNV-1" source="WIyWlLk6GJQsqaUBKTNV-3" edge="1">
          <mxGeometry relative="1" as="geometry">
            <mxPoint x="-640" y="130" as="targetPoint" />
          </mxGeometry>
        </mxCell>
        <mxCell id="WIyWlLk6GJQsqaUBKTNV-3" value="begin" style="rounded=1;whiteSpace=wrap;html=1;fontSize=12;glass=0;strokeWidth=1;shadow=0;" parent="WIyWlLk6GJQsqaUBKTNV-1" vertex="1">
          <mxGeometry x="-700" y="40" width="120" height="40" as="geometry" />
        </mxCell>
        <mxCell id="WIyWlLk6GJQsqaUBKTNV-4" value="A: je gaat naar de deur" style="rounded=0;html=1;jettySize=auto;orthogonalLoop=1;fontSize=11;endArrow=block;endFill=0;endSize=8;strokeWidth=1;shadow=0;labelBackgroundColor=none;edgeStyle=orthogonalEdgeStyle;" parent="WIyWlLk6GJQsqaUBKTNV-1" source="WIyWlLk6GJQsqaUBKTNV-6" edge="1">
          <mxGeometry y="20" relative="1" as="geometry">
            <mxPoint as="offset" />
            <mxPoint x="-640" y="310" as="targetPoint" />
          </mxGeometry>
        </mxCell>
        <mxCell id="WIyWlLk6GJQsqaUBKTNV-5" value="B: je blijft liggen" style="edgeStyle=orthogonalEdgeStyle;rounded=0;html=1;jettySize=auto;orthogonalLoop=1;fontSize=11;endArrow=block;endFill=0;endSize=8;strokeWidth=1;shadow=0;labelBackgroundColor=none;" parent="WIyWlLk6GJQsqaUBKTNV-1" source="WIyWlLk6GJQsqaUBKTNV-6" target="WIyWlLk6GJQsqaUBKTNV-7" edge="1">
          <mxGeometry y="10" relative="1" as="geometry">
            <mxPoint as="offset" />
          </mxGeometry>
        </mxCell>
        <mxCell id="WIyWlLk6GJQsqaUBKTNV-6" value="iemand belt aan. je.." style="rhombus;whiteSpace=wrap;html=1;shadow=0;fontFamily=Helvetica;fontSize=12;align=center;strokeWidth=1;spacing=6;spacingTop=-4;" parent="WIyWlLk6GJQsqaUBKTNV-1" vertex="1">
          <mxGeometry x="-690" y="190" width="100" height="80" as="geometry" />
        </mxCell>
        <mxCell id="WIyWlLk6GJQsqaUBKTNV-7" value="ga naar text 3" style="rounded=1;whiteSpace=wrap;html=1;fontSize=12;glass=0;strokeWidth=1;shadow=0;" parent="WIyWlLk6GJQsqaUBKTNV-1" vertex="1">
          <mxGeometry x="-506" y="210" width="120" height="40" as="geometry" />
        </mxCell>
        <mxCell id="WIyWlLk6GJQsqaUBKTNV-8" value="A: je doet de deur niet open" style="rounded=0;html=1;jettySize=auto;orthogonalLoop=1;fontSize=11;endArrow=block;endFill=0;endSize=8;strokeWidth=1;shadow=0;labelBackgroundColor=none;edgeStyle=orthogonalEdgeStyle;exitX=0.5;exitY=1;exitDx=0;exitDy=0;" parent="WIyWlLk6GJQsqaUBKTNV-1" source="Ew5ikxOMpyO41433nC4m-13" target="WIyWlLk6GJQsqaUBKTNV-11" edge="1">
          <mxGeometry x="0.1429" y="10" relative="1" as="geometry">
            <mxPoint as="offset" />
            <mxPoint x="-640" y="530" as="sourcePoint" />
          </mxGeometry>
        </mxCell>
        <mxCell id="WIyWlLk6GJQsqaUBKTNV-11" value="ga naar text 4" style="rounded=1;whiteSpace=wrap;html=1;fontSize=12;glass=0;strokeWidth=1;shadow=0;" parent="WIyWlLk6GJQsqaUBKTNV-1" vertex="1">
          <mxGeometry x="-700" y="590" width="120" height="40" as="geometry" />
        </mxCell>
        <mxCell id="WIyWlLk6GJQsqaUBKTNV-12" value="ga naar text 2" style="rounded=1;whiteSpace=wrap;html=1;fontSize=12;glass=0;strokeWidth=1;shadow=0;" parent="WIyWlLk6GJQsqaUBKTNV-1" vertex="1">
          <mxGeometry x="-700" y="310" width="120" height="40" as="geometry" />
        </mxCell>
        <mxCell id="Ew5ikxOMpyO41433nC4m-1" value="" style="ellipse;whiteSpace=wrap;html=1;aspect=fixed;" vertex="1" parent="WIyWlLk6GJQsqaUBKTNV-1">
          <mxGeometry x="-330" y="190" width="80" height="80" as="geometry" />
        </mxCell>
        <mxCell id="Ew5ikxOMpyO41433nC4m-0" value="" style="ellipse;whiteSpace=wrap;html=1;aspect=fixed;fillColor=#000000;" vertex="1" parent="WIyWlLk6GJQsqaUBKTNV-1">
          <mxGeometry x="-320" y="200" width="60" height="60" as="geometry" />
        </mxCell>
        <mxCell id="Ew5ikxOMpyO41433nC4m-2" value="" style="ellipse;whiteSpace=wrap;html=1;aspect=fixed;fillColor=#000000;" vertex="1" parent="WIyWlLk6GJQsqaUBKTNV-1">
          <mxGeometry x="-680" y="-100" width="80" height="80" as="geometry" />
        </mxCell>
        <mxCell id="Ew5ikxOMpyO41433nC4m-3" value="" style="endArrow=classic;html=1;rounded=0;exitX=0.5;exitY=1;exitDx=0;exitDy=0;" edge="1" parent="WIyWlLk6GJQsqaUBKTNV-1" source="Ew5ikxOMpyO41433nC4m-2">
          <mxGeometry width="50" height="50" relative="1" as="geometry">
            <mxPoint x="-640.5" y="60" as="sourcePoint" />
            <mxPoint x="-640" y="40" as="targetPoint" />
          </mxGeometry>
        </mxCell>
        <mxCell id="Ew5ikxOMpyO41433nC4m-5" value="" style="endArrow=classic;html=1;rounded=0;entryX=0;entryY=0.5;entryDx=0;entryDy=0;" edge="1" parent="WIyWlLk6GJQsqaUBKTNV-1" target="Ew5ikxOMpyO41433nC4m-1">
          <mxGeometry width="50" height="50" relative="1" as="geometry">
            <mxPoint x="-386" y="229.5" as="sourcePoint" />
            <mxPoint x="-340" y="230" as="targetPoint" />
          </mxGeometry>
        </mxCell>
        <mxCell id="Ew5ikxOMpyO41433nC4m-6" value="einde 1" style="edgeLabel;html=1;align=center;verticalAlign=middle;resizable=0;points=[];" vertex="1" connectable="0" parent="Ew5ikxOMpyO41433nC4m-5">
          <mxGeometry x="-0.1422" y="-2" relative="1" as="geometry">
            <mxPoint y="8" as="offset" />
          </mxGeometry>
        </mxCell>
        <mxCell id="Ew5ikxOMpyO41433nC4m-7" value="" style="rounded=0;whiteSpace=wrap;html=1;fillColor=#000000;" vertex="1" parent="WIyWlLk6GJQsqaUBKTNV-1">
          <mxGeometry x="-2030" y="1790" width="3050" height="60" as="geometry" />
        </mxCell>
        <mxCell id="Ew5ikxOMpyO41433nC4m-8" value="" style="endArrow=classic;html=1;rounded=0;entryX=0.566;entryY=0.002;entryDx=0;entryDy=0;entryPerimeter=0;" edge="1" parent="WIyWlLk6GJQsqaUBKTNV-1" target="Ew5ikxOMpyO41433nC4m-7">
          <mxGeometry width="50" height="50" relative="1" as="geometry">
            <mxPoint x="-295" y="260" as="sourcePoint" />
            <mxPoint x="-285" y="540" as="targetPoint" />
          </mxGeometry>
        </mxCell>
        <mxCell id="Ew5ikxOMpyO41433nC4m-9" value="ga naar text 1" style="rounded=1;whiteSpace=wrap;html=1;" vertex="1" parent="WIyWlLk6GJQsqaUBKTNV-1">
          <mxGeometry x="-700" y="130" width="120" height="40" as="geometry" />
        </mxCell>
        <mxCell id="Ew5ikxOMpyO41433nC4m-11" value="" style="endArrow=classic;html=1;rounded=0;" edge="1" parent="WIyWlLk6GJQsqaUBKTNV-1">
          <mxGeometry width="50" height="50" relative="1" as="geometry">
            <mxPoint x="-640.62" y="170" as="sourcePoint" />
            <mxPoint x="-640" y="190" as="targetPoint" />
          </mxGeometry>
        </mxCell>
        <mxCell id="Ew5ikxOMpyO41433nC4m-12" value="" style="endArrow=classic;html=1;rounded=0;" edge="1" parent="WIyWlLk6GJQsqaUBKTNV-1">
          <mxGeometry width="50" height="50" relative="1" as="geometry">
            <mxPoint x="-640.62" y="350" as="sourcePoint" />
            <mxPoint x="-640" y="420" as="targetPoint" />
          </mxGeometry>
        </mxCell>
        <mxCell id="Ew5ikxOMpyO41433nC4m-13" value="je twijfelt of je de deur open wil doen. je..." style="rhombus;whiteSpace=wrap;html=1;" vertex="1" parent="WIyWlLk6GJQsqaUBKTNV-1">
          <mxGeometry x="-700" y="420" width="120" height="100" as="geometry" />
        </mxCell>
        <mxCell id="Ew5ikxOMpyO41433nC4m-14" value="ga naar text 5" style="rounded=1;whiteSpace=wrap;html=1;" vertex="1" parent="WIyWlLk6GJQsqaUBKTNV-1">
          <mxGeometry x="-960" y="450" width="120" height="40" as="geometry" />
        </mxCell>
        <mxCell id="Ew5ikxOMpyO41433nC4m-15" value="" style="endArrow=classic;html=1;rounded=0;entryX=1;entryY=0.5;entryDx=0;entryDy=0;" edge="1" parent="WIyWlLk6GJQsqaUBKTNV-1" target="Ew5ikxOMpyO41433nC4m-14">
          <mxGeometry width="50" height="50" relative="1" as="geometry">
            <mxPoint x="-700" y="469.38" as="sourcePoint" />
            <mxPoint x="-780" y="469" as="targetPoint" />
          </mxGeometry>
        </mxCell>
        <mxCell id="Ew5ikxOMpyO41433nC4m-16" value="B: je doet de deur open" style="edgeLabel;html=1;align=center;verticalAlign=middle;resizable=0;points=[];" vertex="1" connectable="0" parent="Ew5ikxOMpyO41433nC4m-15">
          <mxGeometry x="-0.1169" y="-2" relative="1" as="geometry">
            <mxPoint y="-8" as="offset" />
          </mxGeometry>
        </mxCell>
        <mxCell id="Ew5ikxOMpyO41433nC4m-17" value="" style="endArrow=classic;html=1;rounded=0;" edge="1" parent="WIyWlLk6GJQsqaUBKTNV-1">
          <mxGeometry width="50" height="50" relative="1" as="geometry">
            <mxPoint x="-960" y="469.37" as="sourcePoint" />
            <mxPoint x="-1040" y="469" as="targetPoint" />
          </mxGeometry>
        </mxCell>
        <mxCell id="Ew5ikxOMpyO41433nC4m-20" value="einde 2" style="edgeLabel;html=1;align=center;verticalAlign=middle;resizable=0;points=[];" vertex="1" connectable="0" parent="Ew5ikxOMpyO41433nC4m-17">
          <mxGeometry x="-0.0249" y="-1" relative="1" as="geometry">
            <mxPoint y="12" as="offset" />
          </mxGeometry>
        </mxCell>
        <mxCell id="Ew5ikxOMpyO41433nC4m-18" value="" style="ellipse;whiteSpace=wrap;html=1;aspect=fixed;" vertex="1" parent="WIyWlLk6GJQsqaUBKTNV-1">
          <mxGeometry x="-1120" y="430" width="80" height="80" as="geometry" />
        </mxCell>
        <mxCell id="Ew5ikxOMpyO41433nC4m-19" value="" style="ellipse;whiteSpace=wrap;html=1;aspect=fixed;fillColor=#000000;" vertex="1" parent="WIyWlLk6GJQsqaUBKTNV-1">
          <mxGeometry x="-1110" y="440" width="60" height="60" as="geometry" />
        </mxCell>
        <mxCell id="Ew5ikxOMpyO41433nC4m-21" value="je besslist je te verstoppen. je..." style="rhombus;whiteSpace=wrap;html=1;" vertex="1" parent="WIyWlLk6GJQsqaUBKTNV-1">
          <mxGeometry x="-700" y="680" width="120" height="110" as="geometry" />
        </mxCell>
        <mxCell id="Ew5ikxOMpyO41433nC4m-22" value="" style="endArrow=classic;html=1;rounded=0;" edge="1" parent="WIyWlLk6GJQsqaUBKTNV-1">
          <mxGeometry width="50" height="50" relative="1" as="geometry">
            <mxPoint x="-640.71" y="630" as="sourcePoint" />
            <mxPoint x="-641" y="680" as="targetPoint" />
          </mxGeometry>
        </mxCell>
        <mxCell id="Ew5ikxOMpyO41433nC4m-23" value="ga naar text 6" style="rounded=1;whiteSpace=wrap;html=1;" vertex="1" parent="WIyWlLk6GJQsqaUBKTNV-1">
          <mxGeometry x="-700" y="860" width="120" height="40" as="geometry" />
        </mxCell>
        <mxCell id="Ew5ikxOMpyO41433nC4m-25" value="" style="endArrow=classic;html=1;rounded=0;" edge="1" parent="WIyWlLk6GJQsqaUBKTNV-1">
          <mxGeometry width="50" height="50" relative="1" as="geometry">
            <mxPoint x="-640.67" y="790" as="sourcePoint" />
            <mxPoint x="-641" y="860" as="targetPoint" />
          </mxGeometry>
        </mxCell>
        <mxCell id="Ew5ikxOMpyO41433nC4m-26" value="A: je gaat verstoppen in de kelder" style="edgeLabel;html=1;align=center;verticalAlign=middle;resizable=0;points=[];" vertex="1" connectable="0" parent="Ew5ikxOMpyO41433nC4m-25">
          <mxGeometry x="-0.3713" y="-1" relative="1" as="geometry">
            <mxPoint y="-1" as="offset" />
          </mxGeometry>
        </mxCell>
        <mxCell id="Ew5ikxOMpyO41433nC4m-27" value="ga naar text 9" style="rounded=1;whiteSpace=wrap;html=1;" vertex="1" parent="WIyWlLk6GJQsqaUBKTNV-1">
          <mxGeometry x="-960" y="715" width="120" height="40" as="geometry" />
        </mxCell>
        <mxCell id="Ew5ikxOMpyO41433nC4m-28" value="" style="endArrow=classic;html=1;rounded=0;" edge="1" parent="WIyWlLk6GJQsqaUBKTNV-1">
          <mxGeometry width="50" height="50" relative="1" as="geometry">
            <mxPoint x="-700" y="734.52" as="sourcePoint" />
            <mxPoint x="-840" y="735" as="targetPoint" />
          </mxGeometry>
        </mxCell>
        <mxCell id="Ew5ikxOMpyO41433nC4m-29" value="B: je verstopt in de muren" style="edgeLabel;html=1;align=center;verticalAlign=middle;resizable=0;points=[];" vertex="1" connectable="0" parent="Ew5ikxOMpyO41433nC4m-28">
          <mxGeometry x="0.1979" y="-1" relative="1" as="geometry">
            <mxPoint x="24" y="16" as="offset" />
          </mxGeometry>
        </mxCell>
        <mxCell id="Ew5ikxOMpyO41433nC4m-30" value="" style="endArrow=classic;html=1;rounded=0;" edge="1" parent="WIyWlLk6GJQsqaUBKTNV-1">
          <mxGeometry width="50" height="50" relative="1" as="geometry">
            <mxPoint x="-960" y="734.52" as="sourcePoint" />
            <mxPoint x="-1050" y="734.52" as="targetPoint" />
          </mxGeometry>
        </mxCell>
        <mxCell id="Ew5ikxOMpyO41433nC4m-33" value="einde 5" style="edgeLabel;html=1;align=center;verticalAlign=middle;resizable=0;points=[];" vertex="1" connectable="0" parent="Ew5ikxOMpyO41433nC4m-30">
          <mxGeometry x="-0.1058" y="-1" relative="1" as="geometry">
            <mxPoint x="-20" y="16" as="offset" />
          </mxGeometry>
        </mxCell>
        <mxCell id="Ew5ikxOMpyO41433nC4m-31" value="" style="ellipse;whiteSpace=wrap;html=1;aspect=fixed;" vertex="1" parent="WIyWlLk6GJQsqaUBKTNV-1">
          <mxGeometry x="-1130" y="695" width="80" height="80" as="geometry" />
        </mxCell>
        <mxCell id="Ew5ikxOMpyO41433nC4m-32" value="" style="ellipse;whiteSpace=wrap;html=1;aspect=fixed;fillColor=#000000;" vertex="1" parent="WIyWlLk6GJQsqaUBKTNV-1">
          <mxGeometry x="-1120" y="705" width="60" height="60" as="geometry" />
        </mxCell>
        <mxCell id="Ew5ikxOMpyO41433nC4m-34" value="het lijkt stil te zijn. je.." style="rhombus;whiteSpace=wrap;html=1;" vertex="1" parent="WIyWlLk6GJQsqaUBKTNV-1">
          <mxGeometry x="-680" y="970" width="80" height="80" as="geometry" />
        </mxCell>
        <mxCell id="Ew5ikxOMpyO41433nC4m-35" value="" style="endArrow=classic;html=1;rounded=0;entryX=0.5;entryY=0;entryDx=0;entryDy=0;" edge="1" parent="WIyWlLk6GJQsqaUBKTNV-1" target="Ew5ikxOMpyO41433nC4m-34">
          <mxGeometry width="50" height="50" relative="1" as="geometry">
            <mxPoint x="-640.48" y="900" as="sourcePoint" />
            <mxPoint x="-640" y="960" as="targetPoint" />
          </mxGeometry>
        </mxCell>
        <mxCell id="Ew5ikxOMpyO41433nC4m-36" value="" style="endArrow=classic;html=1;rounded=0;" edge="1" parent="WIyWlLk6GJQsqaUBKTNV-1">
          <mxGeometry width="50" height="50" relative="1" as="geometry">
            <mxPoint x="-640.48" y="1050" as="sourcePoint" />
            <mxPoint x="-640.48" y="1120" as="targetPoint" />
          </mxGeometry>
        </mxCell>
        <mxCell id="Ew5ikxOMpyO41433nC4m-37" value="ga naar text 7" style="rounded=1;whiteSpace=wrap;html=1;" vertex="1" parent="WIyWlLk6GJQsqaUBKTNV-1">
          <mxGeometry x="-700" y="1120" width="120" height="40" as="geometry" />
        </mxCell>
        <mxCell id="Ew5ikxOMpyO41433nC4m-38" value="" style="endArrow=classic;html=1;rounded=0;entryX=1;entryY=0.5;entryDx=0;entryDy=0;" edge="1" parent="WIyWlLk6GJQsqaUBKTNV-1" target="Ew5ikxOMpyO41433nC4m-39">
          <mxGeometry width="50" height="50" relative="1" as="geometry">
            <mxPoint x="-680" y="1009.52" as="sourcePoint" />
            <mxPoint x="-770" y="1009.52" as="targetPoint" />
          </mxGeometry>
        </mxCell>
        <mxCell id="Ew5ikxOMpyO41433nC4m-40" value="B: je gaat de kelder uit" style="edgeLabel;html=1;align=center;verticalAlign=middle;resizable=0;points=[];" vertex="1" connectable="0" parent="Ew5ikxOMpyO41433nC4m-38">
          <mxGeometry x="0.2769" y="2" relative="1" as="geometry">
            <mxPoint x="22" y="8" as="offset" />
          </mxGeometry>
        </mxCell>
        <mxCell id="Ew5ikxOMpyO41433nC4m-39" value="ga naar text 8" style="rounded=1;whiteSpace=wrap;html=1;" vertex="1" parent="WIyWlLk6GJQsqaUBKTNV-1">
          <mxGeometry x="-960" y="990" width="120" height="40" as="geometry" />
        </mxCell>
        <mxCell id="Ew5ikxOMpyO41433nC4m-41" value="" style="endArrow=classic;html=1;rounded=0;entryX=1;entryY=1;entryDx=0;entryDy=0;" edge="1" parent="WIyWlLk6GJQsqaUBKTNV-1" target="Ew5ikxOMpyO41433nC4m-18">
          <mxGeometry width="50" height="50" relative="1" as="geometry">
            <mxPoint x="-960" y="1009.52" as="sourcePoint" />
            <mxPoint x="-1040" y="1009.52" as="targetPoint" />
            <Array as="points">
              <mxPoint x="-1000" y="1010" />
              <mxPoint x="-1000" y="520" />
            </Array>
          </mxGeometry>
        </mxCell>
        <mxCell id="Ew5ikxOMpyO41433nC4m-42" value="einde 2" style="edgeLabel;html=1;align=center;verticalAlign=middle;resizable=0;points=[];" vertex="1" connectable="0" parent="Ew5ikxOMpyO41433nC4m-41">
          <mxGeometry x="-0.9047" y="2" relative="1" as="geometry">
            <mxPoint x="1" y="8" as="offset" />
          </mxGeometry>
        </mxCell>
        <mxCell id="Ew5ikxOMpyO41433nC4m-44" value="" style="endArrow=classic;html=1;rounded=0;entryX=0.259;entryY=0.038;entryDx=0;entryDy=0;entryPerimeter=0;" edge="1" parent="WIyWlLk6GJQsqaUBKTNV-1" target="Ew5ikxOMpyO41433nC4m-7">
          <mxGeometry width="50" height="50" relative="1" as="geometry">
            <mxPoint x="-1110" y="469.47" as="sourcePoint" />
            <mxPoint x="-1240" y="510" as="targetPoint" />
            <Array as="points">
              <mxPoint x="-1240" y="470" />
            </Array>
          </mxGeometry>
        </mxCell>
        <mxCell id="Ew5ikxOMpyO41433nC4m-45" value="" style="endArrow=classic;html=1;rounded=0;entryX=0.309;entryY=-0.061;entryDx=0;entryDy=0;entryPerimeter=0;" edge="1" parent="WIyWlLk6GJQsqaUBKTNV-1" target="Ew5ikxOMpyO41433nC4m-7">
          <mxGeometry width="50" height="50" relative="1" as="geometry">
            <mxPoint x="-1091.11" y="775" as="sourcePoint" />
            <mxPoint x="-1091.11" y="875" as="targetPoint" />
          </mxGeometry>
        </mxCell>
        <mxCell id="Ew5ikxOMpyO41433nC4m-46" value="" style="endArrow=classic;html=1;rounded=0;" edge="1" parent="WIyWlLk6GJQsqaUBKTNV-1">
          <mxGeometry width="50" height="50" relative="1" as="geometry">
            <mxPoint x="-640.53" y="1160" as="sourcePoint" />
            <mxPoint x="-640.53" y="1220" as="targetPoint" />
          </mxGeometry>
        </mxCell>
        <mxCell id="Ew5ikxOMpyO41433nC4m-47" value="je heb honger en weet dat er eten boven is. je..." style="rhombus;whiteSpace=wrap;html=1;" vertex="1" parent="WIyWlLk6GJQsqaUBKTNV-1">
          <mxGeometry x="-700" y="1220" width="120" height="110" as="geometry" />
        </mxCell>
        <mxCell id="Ew5ikxOMpyO41433nC4m-48" value="" style="endArrow=classic;html=1;rounded=0;entryX=0.5;entryY=1;entryDx=0;entryDy=0;" edge="1" parent="WIyWlLk6GJQsqaUBKTNV-1" target="Ew5ikxOMpyO41433nC4m-39">
          <mxGeometry width="50" height="50" relative="1" as="geometry">
            <mxPoint x="-700" y="1274.47" as="sourcePoint" />
            <mxPoint x="-900" y="1220" as="targetPoint" />
            <Array as="points">
              <mxPoint x="-900" y="1274" />
            </Array>
          </mxGeometry>
        </mxCell>
        <mxCell id="Ew5ikxOMpyO41433nC4m-49" value="B: je gaat naar boven" style="edgeLabel;html=1;align=center;verticalAlign=middle;resizable=0;points=[];" vertex="1" connectable="0" parent="Ew5ikxOMpyO41433nC4m-48">
          <mxGeometry x="0.2104" y="2" relative="1" as="geometry">
            <mxPoint x="112" y="84" as="offset" />
          </mxGeometry>
        </mxCell>
        <mxCell id="Ew5ikxOMpyO41433nC4m-50" value="" style="endArrow=classic;html=1;rounded=0;entryX=0;entryY=0.5;entryDx=0;entryDy=0;" edge="1" parent="WIyWlLk6GJQsqaUBKTNV-1" target="Ew5ikxOMpyO41433nC4m-51">
          <mxGeometry width="50" height="50" relative="1" as="geometry">
            <mxPoint x="-580" y="1274.47" as="sourcePoint" />
            <mxPoint x="-480" y="1274.47" as="targetPoint" />
          </mxGeometry>
        </mxCell>
        <mxCell id="Ew5ikxOMpyO41433nC4m-52" value="A: je blijft in de kelder" style="edgeLabel;html=1;align=center;verticalAlign=middle;resizable=0;points=[];" vertex="1" connectable="0" parent="Ew5ikxOMpyO41433nC4m-50">
          <mxGeometry x="-0.3916" relative="1" as="geometry">
            <mxPoint x="17" y="16" as="offset" />
          </mxGeometry>
        </mxCell>
        <mxCell id="Ew5ikxOMpyO41433nC4m-51" value="ga naar text 10" style="rounded=1;whiteSpace=wrap;html=1;" vertex="1" parent="WIyWlLk6GJQsqaUBKTNV-1">
          <mxGeometry x="-474" y="1255" width="120" height="40" as="geometry" />
        </mxCell>
        <mxCell id="Ew5ikxOMpyO41433nC4m-53" value="" style="endArrow=classic;html=1;rounded=0;entryX=0.5;entryY=1;entryDx=0;entryDy=0;" edge="1" parent="WIyWlLk6GJQsqaUBKTNV-1" target="Ew5ikxOMpyO41433nC4m-54">
          <mxGeometry width="50" height="50" relative="1" as="geometry">
            <mxPoint x="-415" y="1255" as="sourcePoint" />
            <mxPoint x="-415" y="1185" as="targetPoint" />
          </mxGeometry>
        </mxCell>
        <mxCell id="Ew5ikxOMpyO41433nC4m-54" value="neem je de kans?" style="rhombus;whiteSpace=wrap;html=1;" vertex="1" parent="WIyWlLk6GJQsqaUBKTNV-1">
          <mxGeometry x="-454" y="1100" width="80" height="80" as="geometry" />
        </mxCell>
        <mxCell id="Ew5ikxOMpyO41433nC4m-55" value="" style="endArrow=classic;html=1;rounded=0;" edge="1" parent="WIyWlLk6GJQsqaUBKTNV-1">
          <mxGeometry width="50" height="50" relative="1" as="geometry">
            <mxPoint x="-374" y="1139.47" as="sourcePoint" />
            <mxPoint x="-150" y="1140" as="targetPoint" />
          </mxGeometry>
        </mxCell>
        <mxCell id="Ew5ikxOMpyO41433nC4m-56" value="B: je vermoord en eet de rat. rauw" style="edgeLabel;html=1;align=center;verticalAlign=middle;resizable=0;points=[];" vertex="1" connectable="0" parent="Ew5ikxOMpyO41433nC4m-55">
          <mxGeometry x="-0.2337" y="-3" relative="1" as="geometry">
            <mxPoint x="-2" y="-13" as="offset" />
          </mxGeometry>
        </mxCell>
        <mxCell id="Ew5ikxOMpyO41433nC4m-57" value="ga naar text 12" style="rounded=1;whiteSpace=wrap;html=1;" vertex="1" parent="WIyWlLk6GJQsqaUBKTNV-1">
          <mxGeometry x="-150" y="1120" width="120" height="41" as="geometry" />
        </mxCell>
        <mxCell id="Ew5ikxOMpyO41433nC4m-58" value="" style="endArrow=classic;html=1;rounded=0;" edge="1" parent="WIyWlLk6GJQsqaUBKTNV-1">
          <mxGeometry width="50" height="50" relative="1" as="geometry">
            <mxPoint x="-414" y="1100" as="sourcePoint" />
            <mxPoint x="-414" y="1020" as="targetPoint" />
          </mxGeometry>
        </mxCell>
        <mxCell id="Ew5ikxOMpyO41433nC4m-59" value="A: je blijft staren naar het lopende stuk vlees" style="edgeLabel;html=1;align=center;verticalAlign=middle;resizable=0;points=[];" vertex="1" connectable="0" parent="Ew5ikxOMpyO41433nC4m-58">
          <mxGeometry x="-0.4013" y="1" relative="1" as="geometry">
            <mxPoint as="offset" />
          </mxGeometry>
        </mxCell>
        <mxCell id="Ew5ikxOMpyO41433nC4m-60" value="ga naar text 11" style="rounded=1;whiteSpace=wrap;html=1;" vertex="1" parent="WIyWlLk6GJQsqaUBKTNV-1">
          <mxGeometry x="-474" y="980" width="120" height="40" as="geometry" />
        </mxCell>
        <mxCell id="Ew5ikxOMpyO41433nC4m-61" value="" style="endArrow=classic;html=1;rounded=0;entryX=0.581;entryY=-0.081;entryDx=0;entryDy=0;entryPerimeter=0;" edge="1" parent="WIyWlLk6GJQsqaUBKTNV-1" target="Ew5ikxOMpyO41433nC4m-57">
          <mxGeometry width="50" height="50" relative="1" as="geometry">
            <mxPoint x="-354" y="999.47" as="sourcePoint" />
            <mxPoint x="-80" y="1040" as="targetPoint" />
            <Array as="points">
              <mxPoint x="-80" y="1000" />
            </Array>
          </mxGeometry>
        </mxCell>
      </root>
    </mxGraphModel>
  </diagram>
</mxfile>
